<?xml version="1.0" encoding="UTF-8" standalone="no"?>
<!DOCTYPE svg PUBLIC "-//W3C//DTD SVG 1.1//EN"
 "http://www.w3.org/Graphics/SVG/1.1/DTD/svg11.dtd">
<!-- Generated by graphviz version 6.0.1 (20220911.1526)
 -->
<!-- Pages: 1 -->
<svg width="782pt" height="328pt"
 viewBox="0.00 0.00 782.00 328.00" xmlns="http://www.w3.org/2000/svg" xmlns:xlink="http://www.w3.org/1999/xlink">
<g id="graph0" class="graph" transform="scale(1 1) rotate(0) translate(4 324)">
<polygon fill="white" stroke="none" points="-4,4 -4,-324 778,-324 778,4 -4,4"/>
<!-- a -->
<g id="node1" class="node">
<title>a</title>
<ellipse fill="none" stroke="black" cx="27" cy="-267" rx="27" ry="18"/>
<text text-anchor="middle" x="27" y="-263.3" font-family="Times,serif" font-size="14.00">a</text>
</g>
<!-- R1 -->
<g id="node10" class="node">
<title>R1</title>
<path fill="none" stroke="black" d="M132,-216C132,-216 102,-216 102,-216 96,-216 90,-210 90,-204 90,-204 90,-192 90,-192 90,-186 96,-180 102,-180 102,-180 132,-180 132,-180 138,-180 144,-186 144,-192 144,-192 144,-204 144,-204 144,-210 138,-216 132,-216"/>
<text text-anchor="middle" x="117" y="-194.3" font-family="Times,serif" font-size="14.00">R1</text>
</g>
<!-- a&#45;&gt;R1 -->
<g id="edge1" class="edge">
<title>a&#45;&gt;R1</title>
<path fill="none" stroke="#a2e665" d="M45.39,-253.37C56.67,-244.52 71.69,-232.74 84.98,-222.32"/>
<polygon fill="#a2e665" stroke="#a2e665" points="87.27,-224.97 92.98,-216.05 82.95,-219.47 87.27,-224.97"/>
</g>
<!-- R5 -->
<g id="node11" class="node">
<title>R5</title>
<path fill="none" stroke="black" d="M312,-270C312,-270 282,-270 282,-270 276,-270 270,-264 270,-258 270,-258 270,-246 270,-246 270,-240 276,-234 282,-234 282,-234 312,-234 312,-234 318,-234 324,-240 324,-246 324,-246 324,-258 324,-258 324,-264 318,-270 312,-270"/>
<text text-anchor="middle" x="297" y="-248.3" font-family="Times,serif" font-size="14.00">R5</text>
</g>
<!-- a&#45;&gt;R5 -->
<g id="edge2" class="edge">
<title>a&#45;&gt;R5</title>
<path fill="none" stroke="#a2e665" d="M54.04,-266.3C93.15,-265.16 169.36,-262.54 234,-258 242.36,-257.41 251.34,-256.63 259.8,-255.83"/>
<polygon fill="#a2e665" stroke="#a2e665" points="260.17,-259.31 269.78,-254.85 259.49,-252.34 260.17,-259.31"/>
</g>
<!-- R6 -->
<g id="node12" class="node">
<title>R6</title>
<path fill="none" stroke="black" d="M492,-224C492,-224 462,-224 462,-224 456,-224 450,-218 450,-212 450,-212 450,-200 450,-200 450,-194 456,-188 462,-188 462,-188 492,-188 492,-188 498,-188 504,-194 504,-200 504,-200 504,-212 504,-212 504,-218 498,-224 492,-224"/>
<text text-anchor="middle" x="477" y="-202.3" font-family="Times,serif" font-size="14.00">R6</text>
</g>
<!-- a&#45;&gt;R6 -->
<g id="edge3" class="edge">
<title>a&#45;&gt;R6</title>
<path fill="none" stroke="#a2e665" d="M49.04,-277.6C81.75,-293.06 147.16,-320 206,-320 206,-320 206,-320 298,-320 352.68,-320 368.97,-310.02 414,-279 431.74,-266.78 447.41,-248.23 458.55,-232.89"/>
<polygon fill="#a2e665" stroke="#a2e665" points="461.7,-234.49 464.57,-224.29 455.97,-230.47 461.7,-234.49"/>
</g>
<!-- R3 -->
<g id="node13" class="node">
<title>R3</title>
<path fill="none" stroke="black" d="M492,-140C492,-140 462,-140 462,-140 456,-140 450,-134 450,-128 450,-128 450,-116 450,-116 450,-110 456,-104 462,-104 462,-104 492,-104 492,-104 498,-104 504,-110 504,-116 504,-116 504,-128 504,-128 504,-134 498,-140 492,-140"/>
<text text-anchor="middle" x="477" y="-118.3" font-family="Times,serif" font-size="14.00">R3</text>
</g>
<!-- a&#45;&gt;R3 -->
<g id="edge4" class="edge">
<title>a&#45;&gt;R3</title>
<path fill="none" stroke="#a2e665" d="M53.78,-263.43C93.2,-257.59 170.54,-244.65 234,-225 316.95,-199.31 334.19,-183.23 414,-149 422.55,-145.34 431.74,-141.35 440.36,-137.6"/>
<polygon fill="#a2e665" stroke="#a2e665" points="442.01,-140.7 449.78,-133.49 439.22,-134.28 442.01,-140.7"/>
</g>
<!-- b -->
<g id="node2" class="node">
<title>b</title>
<ellipse fill="none" stroke="black" cx="27" cy="-198" rx="27" ry="18"/>
<text text-anchor="middle" x="27" y="-194.3" font-family="Times,serif" font-size="14.00">b</text>
</g>
<!-- b&#45;&gt;R1 -->
<g id="edge5" class="edge">
<title>b&#45;&gt;R1</title>
<path fill="none" stroke="#a2e665" d="M54.4,-198C62.39,-198 71.31,-198 79.82,-198"/>
<polygon fill="#a2e665" stroke="#a2e665" points="79.92,-201.5 89.92,-198 79.92,-194.5 79.92,-201.5"/>
</g>
<!-- d -->
<g id="node3" class="node">
<title>d</title>
<ellipse fill="none" stroke="black" cx="27" cy="-114" rx="27" ry="18"/>
<text text-anchor="middle" x="27" y="-110.3" font-family="Times,serif" font-size="14.00">d</text>
</g>
<!-- d&#45;&gt;R6 -->
<g id="edge7" class="edge">
<title>d&#45;&gt;R6</title>
<path fill="none" stroke="#a2e665" d="M52.36,-120.64C63.76,-123.65 77.53,-127.17 90,-130 217.97,-159.08 371.28,-187.32 439.81,-199.6"/>
<polygon fill="#a2e665" stroke="#a2e665" points="439.22,-203.05 449.68,-201.36 440.45,-196.16 439.22,-203.05"/>
</g>
<!-- d&#45;&gt;R3 -->
<g id="edge8" class="edge">
<title>d&#45;&gt;R3</title>
<path fill="none" stroke="#a2e665" d="M51.27,-105.75C84.95,-94.58 149.44,-76 206,-76 206,-76 206,-76 298,-76 350.24,-76 363.89,-80.23 414,-95 422.84,-97.6 432.08,-101.15 440.65,-104.81"/>
<polygon fill="#a2e665" stroke="#a2e665" points="439.43,-108.1 449.99,-108.95 442.27,-101.7 439.43,-108.1"/>
</g>
<!-- R2 -->
<g id="node14" class="node">
<title>R2</title>
<path fill="none" stroke="black" d="M312,-140C312,-140 282,-140 282,-140 276,-140 270,-134 270,-128 270,-128 270,-116 270,-116 270,-110 276,-104 282,-104 282,-104 312,-104 312,-104 318,-104 324,-110 324,-116 324,-116 324,-128 324,-128 324,-134 318,-140 312,-140"/>
<text text-anchor="middle" x="297" y="-118.3" font-family="Times,serif" font-size="14.00">R2</text>
</g>
<!-- d&#45;&gt;R2 -->
<g id="edge6" class="edge">
<title>d&#45;&gt;R2</title>
<path fill="none" stroke="#a2e665" d="M54.18,-114.78C102.22,-116.22 204.51,-119.27 259.39,-120.91"/>
<polygon fill="#a2e665" stroke="#a2e665" points="259.61,-124.42 269.71,-121.22 259.82,-117.42 259.61,-124.42"/>
</g>
<!-- g -->
<g id="node4" class="node">
<title>g</title>
<ellipse fill="none" stroke="black" cx="27" cy="-19" rx="27" ry="18"/>
<text text-anchor="middle" x="27" y="-15.3" font-family="Times,serif" font-size="14.00">g</text>
</g>
<!-- R8 -->
<g id="node15" class="node">
<title>R8</title>
<path fill="none" stroke="black" d="M672,-86C672,-86 642,-86 642,-86 636,-86 630,-80 630,-74 630,-74 630,-62 630,-62 630,-56 636,-50 642,-50 642,-50 672,-50 672,-50 678,-50 684,-56 684,-62 684,-62 684,-74 684,-74 684,-80 678,-86 672,-86"/>
<text text-anchor="middle" x="657" y="-64.3" font-family="Times,serif" font-size="14.00">R8</text>
</g>
<!-- g&#45;&gt;R8 -->
<g id="edge9" class="edge">
<title>g&#45;&gt;R8</title>
<path fill="none" stroke="#a2e665" d="M53.26,-14.59C87.68,-8.98 151.3,0 206,0 206,0 206,0 478,0 530.38,0 586.07,-26.02 620.93,-45.87"/>
<polygon fill="#a2e665" stroke="#a2e665" points="619.35,-49 629.76,-51.02 622.88,-42.95 619.35,-49"/>
</g>
<!-- R7 -->
<g id="node16" class="node">
<title>R7</title>
<path fill="none" stroke="black" d="M492,-86C492,-86 462,-86 462,-86 456,-86 450,-80 450,-74 450,-74 450,-62 450,-62 450,-56 456,-50 462,-50 462,-50 492,-50 492,-50 498,-50 504,-56 504,-62 504,-62 504,-74 504,-74 504,-80 498,-86 492,-86"/>
<text text-anchor="middle" x="477" y="-64.3" font-family="Times,serif" font-size="14.00">R7</text>
</g>
<!-- g&#45;&gt;R7 -->
<g id="edge10" class="edge">
<title>g&#45;&gt;R7</title>
<path fill="none" stroke="#a2e665" d="M53.26,-23.41C87.68,-29.02 151.3,-38 206,-38 206,-38 206,-38 298,-38 347.77,-38 404.3,-49.55 440.04,-58.31"/>
<polygon fill="#a2e665" stroke="#a2e665" points="439.44,-61.77 449.99,-60.81 441.15,-54.98 439.44,-61.77"/>
</g>
<!-- c -->
<g id="node5" class="node">
<title>c</title>
<ellipse fill="none" stroke="black" cx="207" cy="-198" rx="27" ry="18"/>
<text text-anchor="middle" x="207" y="-194.3" font-family="Times,serif" font-size="14.00">c</text>
</g>
<!-- c&#45;&gt;R5 -->
<g id="edge12" class="edge">
<title>c&#45;&gt;R5</title>
<path fill="none" stroke="#a2e665" d="M227.53,-209.98C237.46,-216.08 249.82,-223.66 261.3,-230.7"/>
<polygon fill="#a2e665" stroke="#a2e665" points="259.49,-233.7 269.85,-235.95 263.15,-227.74 259.49,-233.7"/>
</g>
<!-- c&#45;&gt;R2 -->
<g id="edge13" class="edge">
<title>c&#45;&gt;R2</title>
<path fill="none" stroke="#a2e665" d="M224.14,-184.06C236.2,-173.65 253,-159.14 267.32,-146.77"/>
<polygon fill="#a2e665" stroke="#a2e665" points="269.7,-149.34 274.98,-140.16 265.12,-144.04 269.7,-149.34"/>
</g>
<!-- e -->
<g id="node6" class="node">
<title>e</title>
<ellipse fill="none" stroke="black" cx="387" cy="-122" rx="27" ry="18"/>
<text text-anchor="middle" x="387" y="-118.3" font-family="Times,serif" font-size="14.00">e</text>
</g>
<!-- e&#45;&gt;R6 -->
<g id="edge17" class="edge">
<title>e&#45;&gt;R6</title>
<path fill="none" stroke="#a2e665" d="M403.33,-136.63C415.99,-148.72 434.27,-166.17 449.32,-180.54"/>
<polygon fill="#a2e665" stroke="#a2e665" points="447.21,-183.35 456.86,-187.73 452.04,-178.29 447.21,-183.35"/>
</g>
<!-- e&#45;&gt;R3 -->
<g id="edge18" class="edge">
<title>e&#45;&gt;R3</title>
<path fill="none" stroke="#a2e665" d="M414.4,-122C422.39,-122 431.31,-122 439.82,-122"/>
<polygon fill="#a2e665" stroke="#a2e665" points="439.92,-125.5 449.92,-122 439.92,-118.5 439.92,-125.5"/>
</g>
<!-- e&#45;&gt;R7 -->
<g id="edge19" class="edge">
<title>e&#45;&gt;R7</title>
<path fill="none" stroke="#a2e665" d="M407.53,-110.02C417.46,-103.92 429.82,-96.34 441.3,-89.3"/>
<polygon fill="#a2e665" stroke="#a2e665" points="443.15,-92.26 449.85,-84.05 439.49,-86.3 443.15,-92.26"/>
</g>
<!-- y -->
<g id="node7" class="node">
<title>y</title>
<ellipse fill="none" stroke="black" cx="567" cy="-68" rx="27" ry="18"/>
<text text-anchor="middle" x="567" y="-64.3" font-family="Times,serif" font-size="14.00">y</text>
</g>
<!-- y&#45;&gt;R8 -->
<g id="edge21" class="edge">
<title>y&#45;&gt;R8</title>
<path fill="none" stroke="#a2e665" d="M594.4,-68C602.39,-68 611.31,-68 619.82,-68"/>
<polygon fill="#a2e665" stroke="#a2e665" points="619.92,-71.5 629.92,-68 619.92,-64.5 619.92,-71.5"/>
</g>
<!-- f -->
<g id="node8" class="node">
<title>f</title>
<ellipse fill="none" stroke="black" cx="567" cy="-122" rx="27" ry="18"/>
<text text-anchor="middle" x="567" y="-118.3" font-family="Times,serif" font-size="14.00">f</text>
</g>
<!-- f&#45;&gt;R8 -->
<g id="edge23" class="edge">
<title>f&#45;&gt;R8</title>
<path fill="none" stroke="#a2e665" d="M587.53,-110.02C597.46,-103.92 609.82,-96.34 621.3,-89.3"/>
<polygon fill="#a2e665" stroke="#a2e665" points="623.15,-92.26 629.85,-84.05 619.49,-86.3 623.15,-92.26"/>
</g>
<!-- z -->
<g id="node9" class="node">
<title>z</title>
<ellipse fill="none" stroke="black" cx="747" cy="-68" rx="27" ry="18"/>
<text text-anchor="middle" x="747" y="-64.3" font-family="Times,serif" font-size="14.00">z</text>
</g>
<!-- R1&#45;&gt;c -->
<g id="edge11" class="edge">
<title>R1&#45;&gt;c</title>
<path fill="none" stroke="#a2e665" d="M144.4,-198C152.39,-198 161.31,-198 169.82,-198"/>
<polygon fill="#a2e665" stroke="#a2e665" points="169.92,-201.5 179.92,-198 169.92,-194.5 169.92,-201.5"/>
</g>
<!-- x -->
<g id="node17" class="node">
<title>x</title>
<ellipse fill="none" stroke="black" cx="387" cy="-252" rx="27" ry="18"/>
<text text-anchor="middle" x="387" y="-248.3" font-family="Times,serif" font-size="14.00">x</text>
</g>
<!-- R5&#45;&gt;x -->
<g id="edge14" class="edge">
<title>R5&#45;&gt;x</title>
<path fill="none" stroke="#ff6262" d="M324.4,-252C332.39,-252 341.31,-252 349.82,-252"/>
<polygon fill="#ff6262" stroke="#ff6262" points="349.92,-255.5 359.92,-252 349.92,-248.5 349.92,-255.5"/>
</g>
<!-- R6&#45;&gt;y -->
<g id="edge20" class="edge">
<title>R6&#45;&gt;y</title>
<path fill="none" stroke="#a2e665" d="M486.34,-187.84C497.17,-165.12 517.39,-125.5 540,-95 541.19,-93.39 542.47,-91.78 543.8,-90.19"/>
<polygon fill="#a2e665" stroke="#a2e665" points="546.61,-92.3 550.7,-82.52 541.41,-87.62 546.61,-92.3"/>
</g>
<!-- R3&#45;&gt;f -->
<g id="edge22" class="edge">
<title>R3&#45;&gt;f</title>
<path fill="none" stroke="#a2e665" d="M504.4,-122C512.39,-122 521.31,-122 529.82,-122"/>
<polygon fill="#a2e665" stroke="#a2e665" points="529.92,-125.5 539.92,-122 529.92,-118.5 529.92,-125.5"/>
</g>
<!-- R2&#45;&gt;e -->
<g id="edge16" class="edge">
<title>R2&#45;&gt;e</title>
<path fill="none" stroke="#a2e665" d="M324.4,-122C332.39,-122 341.31,-122 349.82,-122"/>
<polygon fill="#a2e665" stroke="#a2e665" points="349.92,-125.5 359.92,-122 349.92,-118.5 349.92,-125.5"/>
</g>
<!-- R8&#45;&gt;z -->
<g id="edge24" class="edge">
<title>R8&#45;&gt;z</title>
<path fill="none" stroke="#a2e665" d="M684.4,-68C692.39,-68 701.31,-68 709.82,-68"/>
<polygon fill="#a2e665" stroke="#a2e665" points="709.92,-71.5 719.92,-68 709.92,-64.5 709.92,-71.5"/>
</g>
<!-- R7&#45;&gt;y -->
<g id="edge25" class="edge">
<title>R7&#45;&gt;y</title>
<path fill="none" stroke="#a2e665" d="M504.4,-68C512.39,-68 521.31,-68 529.82,-68"/>
<polygon fill="#a2e665" stroke="#a2e665" points="529.92,-71.5 539.92,-68 529.92,-64.5 529.92,-71.5"/>
</g>
<!-- x&#45;&gt;R6 -->
<g id="edge15" class="edge">
<title>x&#45;&gt;R6</title>
<path fill="none" stroke="#ff6262" d="M408.85,-241.1C418.46,-236.08 430.13,-229.98 441.03,-224.28"/>
<polygon fill="#ff6262" stroke="#ff6262" points="442.7,-227.36 449.94,-219.62 439.45,-221.15 442.7,-227.36"/>
</g>
</g>
</svg>
