<?xml version="1.0" encoding="UTF-8" standalone="no"?>
<!DOCTYPE svg PUBLIC "-//W3C//DTD SVG 1.1//EN"
 "http://www.w3.org/Graphics/SVG/1.1/DTD/svg11.dtd">
<!-- Generated by graphviz version 6.0.1 (20220911.1526)
 -->
<!-- Pages: 1 -->
<svg width="422pt" height="206pt"
 viewBox="0.00 0.00 422.00 206.00" xmlns="http://www.w3.org/2000/svg" xmlns:xlink="http://www.w3.org/1999/xlink">
<g id="graph0" class="graph" transform="scale(1 1) rotate(0) translate(4 202)">
<polygon fill="white" stroke="none" points="-4,4 -4,-202 418,-202 418,4 -4,4"/>
<!-- a -->
<g id="node1" class="node">
<title>a</title>
<ellipse fill="none" stroke="black" cx="27" cy="-180" rx="27" ry="18"/>
<text text-anchor="middle" x="27" y="-176.3" font-family="Times,serif" font-size="14.00">a</text>
</g>
<!-- r1 -->
<g id="node7" class="node">
<title>r1</title>
<path fill="none" stroke="black" d="M132,-144C132,-144 102,-144 102,-144 96,-144 90,-138 90,-132 90,-132 90,-120 90,-120 90,-114 96,-108 102,-108 102,-108 132,-108 132,-108 138,-108 144,-114 144,-120 144,-120 144,-132 144,-132 144,-138 138,-144 132,-144"/>
<text text-anchor="middle" x="117" y="-122.3" font-family="Times,serif" font-size="14.00">r1</text>
</g>
<!-- a&#45;&gt;r1 -->
<g id="edge1" class="edge">
<title>a&#45;&gt;r1</title>
<path fill="none" stroke="#a2e665" d="M47.53,-168.02C57.46,-161.92 69.82,-154.34 81.3,-147.3"/>
<polygon fill="#a2e665" stroke="#a2e665" points="83.15,-150.26 89.85,-142.05 79.49,-144.3 83.15,-150.26"/>
</g>
<!-- b -->
<g id="node2" class="node">
<title>b</title>
<ellipse fill="none" stroke="black" cx="27" cy="-126" rx="27" ry="18"/>
<text text-anchor="middle" x="27" y="-122.3" font-family="Times,serif" font-size="14.00">b</text>
</g>
<!-- b&#45;&gt;r1 -->
<g id="edge2" class="edge">
<title>b&#45;&gt;r1</title>
<path fill="none" stroke="#a2e665" d="M54.4,-126C62.39,-126 71.31,-126 79.82,-126"/>
<polygon fill="#a2e665" stroke="#a2e665" points="79.92,-129.5 89.92,-126 79.92,-122.5 79.92,-129.5"/>
</g>
<!-- c -->
<g id="node3" class="node">
<title>c</title>
<ellipse fill="none" stroke="black" cx="27" cy="-18" rx="27" ry="18"/>
<text text-anchor="middle" x="27" y="-14.3" font-family="Times,serif" font-size="14.00">c</text>
</g>
<!-- r2 -->
<g id="node8" class="node">
<title>r2</title>
<path fill="none" stroke="#e7e7e7" d="M132,-46C132,-46 102,-46 102,-46 96,-46 90,-40 90,-34 90,-34 90,-22 90,-22 90,-16 96,-10 102,-10 102,-10 132,-10 132,-10 138,-10 144,-16 144,-22 144,-22 144,-34 144,-34 144,-40 138,-46 132,-46"/>
<text text-anchor="middle" x="117" y="-24.3" font-family="Times,serif" font-size="14.00">r2</text>
</g>
<!-- c&#45;&gt;r2 -->
<g id="edge3" class="edge">
<title>c&#45;&gt;r2</title>
<path fill="none" stroke="#e7e7e7" stroke-dasharray="5,2" d="M53.93,-20.95C62.09,-21.87 71.26,-22.92 79.99,-23.91"/>
<polygon fill="#e7e7e7" stroke="#e7e7e7" points="79.62,-27.39 89.95,-25.04 80.41,-20.43 79.62,-27.39"/>
</g>
<!-- d -->
<g id="node4" class="node">
<title>d</title>
<ellipse fill="none" stroke="black" cx="27" cy="-72" rx="27" ry="18"/>
<text text-anchor="middle" x="27" y="-68.3" font-family="Times,serif" font-size="14.00">d</text>
</g>
<!-- d&#45;&gt;r2 -->
<g id="edge4" class="edge">
<title>d&#45;&gt;r2</title>
<path fill="none" stroke="#e7e7e7" stroke-dasharray="5,2" d="M49.3,-61.35C58.74,-56.63 70.11,-50.95 80.76,-45.62"/>
<polygon fill="#e7e7e7" stroke="#e7e7e7" points="82.49,-48.67 89.87,-41.07 79.36,-42.41 82.49,-48.67"/>
</g>
<!-- r3 -->
<g id="node9" class="node">
<title>r3</title>
<path fill="none" stroke="black" d="M312,-92C312,-92 282,-92 282,-92 276,-92 270,-86 270,-80 270,-80 270,-68 270,-68 270,-62 276,-56 282,-56 282,-56 312,-56 312,-56 318,-56 324,-62 324,-68 324,-68 324,-80 324,-80 324,-86 318,-92 312,-92"/>
<text text-anchor="middle" x="297" y="-70.3" font-family="Times,serif" font-size="14.00">r3</text>
</g>
<!-- d&#45;&gt;r3 -->
<g id="edge5" class="edge">
<title>d&#45;&gt;r3</title>
<path fill="none" stroke="#a2e665" d="M54.18,-72.2C102.22,-72.55 204.51,-73.32 259.39,-73.73"/>
<polygon fill="#a2e665" stroke="#a2e665" points="259.68,-77.23 269.71,-73.8 259.74,-70.23 259.68,-77.23"/>
</g>
<!-- e -->
<g id="node5" class="node">
<title>e</title>
<ellipse fill="none" stroke="black" cx="207" cy="-124" rx="27" ry="18"/>
<text text-anchor="middle" x="207" y="-120.3" font-family="Times,serif" font-size="14.00">e</text>
</g>
<!-- e&#45;&gt;r3 -->
<g id="edge7" class="edge">
<title>e&#45;&gt;r3</title>
<path fill="none" stroke="#a2e665" d="M227.97,-112.65C237.73,-107.11 249.77,-100.27 261,-93.89"/>
<polygon fill="#a2e665" stroke="#a2e665" points="262.8,-96.89 269.76,-88.91 259.34,-90.8 262.8,-96.89"/>
</g>
<!-- z -->
<g id="node6" class="node">
<title>z</title>
<ellipse fill="none" stroke="black" cx="387" cy="-51" rx="27" ry="18"/>
<text text-anchor="middle" x="387" y="-47.3" font-family="Times,serif" font-size="14.00">z</text>
</g>
<!-- r1&#45;&gt;e -->
<g id="edge6" class="edge">
<title>r1&#45;&gt;e</title>
<path fill="none" stroke="#a2e665" d="M144.4,-125.4C152.39,-125.22 161.31,-125.02 169.82,-124.82"/>
<polygon fill="#a2e665" stroke="#a2e665" points="170,-128.32 179.92,-124.59 169.84,-121.32 170,-128.32"/>
</g>
<!-- r2&#45;&gt;z -->
<g id="edge8" class="edge">
<title>r2&#45;&gt;z</title>
<path fill="none" stroke="#e7e7e7" stroke-dasharray="5,2" d="M144.18,-30.25C192.34,-34.38 295.03,-43.19 349.82,-47.89"/>
<polygon fill="#e7e7e7" stroke="#e7e7e7" points="349.84,-51.41 360.1,-48.78 350.44,-44.44 349.84,-51.41"/>
</g>
<!-- r3&#45;&gt;z -->
<g id="edge9" class="edge">
<title>r3&#45;&gt;z</title>
<path fill="none" stroke="#a2e665" d="M324.4,-67.1C333.01,-64.85 342.69,-62.32 351.79,-59.94"/>
<polygon fill="#a2e665" stroke="#a2e665" points="352.93,-63.26 361.72,-57.35 351.16,-56.49 352.93,-63.26"/>
</g>
</g>
</svg>
