<?xml version="1.0" encoding="UTF-8" standalone="no"?>
<!DOCTYPE svg PUBLIC "-//W3C//DTD SVG 1.1//EN"
 "http://www.w3.org/Graphics/SVG/1.1/DTD/svg11.dtd">
<!-- Generated by graphviz version 6.0.1 (20220911.1526)
 -->
<!-- Pages: 1 -->
<svg width="242pt" height="206pt"
 viewBox="0.00 0.00 242.00 206.00" xmlns="http://www.w3.org/2000/svg" xmlns:xlink="http://www.w3.org/1999/xlink">
<g id="graph0" class="graph" transform="scale(1 1) rotate(0) translate(4 202)">
<polygon fill="white" stroke="none" points="-4,4 -4,-202 238,-202 238,4 -4,4"/>
<!-- a -->
<g id="node1" class="node">
<title>a</title>
<ellipse fill="none" stroke="black" cx="27" cy="-180" rx="27" ry="18"/>
<text text-anchor="middle" x="27" y="-176.3" font-family="Times,serif" font-size="14.00">a</text>
</g>
<!-- R1 -->
<g id="node6" class="node">
<title>R1</title>
<path fill="none" stroke="#e7e7e7" d="M132,-198C132,-198 102,-198 102,-198 96,-198 90,-192 90,-186 90,-186 90,-174 90,-174 90,-168 96,-162 102,-162 102,-162 132,-162 132,-162 138,-162 144,-168 144,-174 144,-174 144,-186 144,-186 144,-192 138,-198 132,-198"/>
<text text-anchor="middle" x="117" y="-176.3" font-family="Times,serif" font-size="14.00">R1</text>
</g>
<!-- a&#45;&gt;R1 -->
<g id="edge1" class="edge">
<title>a&#45;&gt;R1</title>
<path fill="none" stroke="#e7e7e7" stroke-dasharray="5,2" d="M54.4,-180C62.39,-180 71.31,-180 79.82,-180"/>
<polygon fill="#e7e7e7" stroke="#e7e7e7" points="79.92,-183.5 89.92,-180 79.92,-176.5 79.92,-183.5"/>
</g>
<!-- b -->
<g id="node2" class="node">
<title>b</title>
<ellipse fill="none" stroke="black" cx="27" cy="-126" rx="27" ry="18"/>
<text text-anchor="middle" x="27" y="-122.3" font-family="Times,serif" font-size="14.00">b</text>
</g>
<!-- R2 -->
<g id="node7" class="node">
<title>R2</title>
<path fill="none" stroke="#e7e7e7" d="M132,-144C132,-144 102,-144 102,-144 96,-144 90,-138 90,-132 90,-132 90,-120 90,-120 90,-114 96,-108 102,-108 102,-108 132,-108 132,-108 138,-108 144,-114 144,-120 144,-120 144,-132 144,-132 144,-138 138,-144 132,-144"/>
<text text-anchor="middle" x="117" y="-122.3" font-family="Times,serif" font-size="14.00">R2</text>
</g>
<!-- b&#45;&gt;R2 -->
<g id="edge2" class="edge">
<title>b&#45;&gt;R2</title>
<path fill="none" stroke="#e7e7e7" stroke-dasharray="5,2" d="M54.4,-126C62.39,-126 71.31,-126 79.82,-126"/>
<polygon fill="#e7e7e7" stroke="#e7e7e7" points="79.92,-129.5 89.92,-126 79.92,-122.5 79.92,-129.5"/>
</g>
<!-- c -->
<g id="node3" class="node">
<title>c</title>
<ellipse fill="none" stroke="black" cx="27" cy="-72" rx="27" ry="18"/>
<text text-anchor="middle" x="27" y="-68.3" font-family="Times,serif" font-size="14.00">c</text>
</g>
<!-- c&#45;&gt;R2 -->
<g id="edge4" class="edge">
<title>c&#45;&gt;R2</title>
<path fill="none" stroke="#e7e7e7" stroke-dasharray="5,2" d="M47.53,-83.98C57.46,-90.08 69.82,-97.66 81.3,-104.7"/>
<polygon fill="#e7e7e7" stroke="#e7e7e7" points="79.49,-107.7 89.85,-109.95 83.15,-101.74 79.49,-107.7"/>
</g>
<!-- R3 -->
<g id="node8" class="node">
<title>R3</title>
<path fill="none" stroke="black" d="M132,-90C132,-90 102,-90 102,-90 96,-90 90,-84 90,-78 90,-78 90,-66 90,-66 90,-60 96,-54 102,-54 102,-54 132,-54 132,-54 138,-54 144,-60 144,-66 144,-66 144,-78 144,-78 144,-84 138,-90 132,-90"/>
<text text-anchor="middle" x="117" y="-68.3" font-family="Times,serif" font-size="14.00">R3</text>
</g>
<!-- c&#45;&gt;R3 -->
<g id="edge3" class="edge">
<title>c&#45;&gt;R3</title>
<path fill="none" stroke="#a2e665" d="M54.4,-72C62.39,-72 71.31,-72 79.82,-72"/>
<polygon fill="#a2e665" stroke="#a2e665" points="79.92,-75.5 89.92,-72 79.92,-68.5 79.92,-75.5"/>
</g>
<!-- d -->
<g id="node4" class="node">
<title>d</title>
<ellipse fill="none" stroke="black" cx="27" cy="-18" rx="27" ry="18"/>
<text text-anchor="middle" x="27" y="-14.3" font-family="Times,serif" font-size="14.00">d</text>
</g>
<!-- d&#45;&gt;R3 -->
<g id="edge5" class="edge">
<title>d&#45;&gt;R3</title>
<path fill="none" stroke="#a2e665" d="M47.53,-29.98C57.46,-36.08 69.82,-43.66 81.3,-50.7"/>
<polygon fill="#a2e665" stroke="#a2e665" points="79.49,-53.7 89.85,-55.95 83.15,-47.74 79.49,-53.7"/>
</g>
<!-- x -->
<g id="node5" class="node">
<title>x</title>
<ellipse fill="none" stroke="black" cx="207" cy="-126" rx="27" ry="18"/>
<text text-anchor="middle" x="207" y="-122.3" font-family="Times,serif" font-size="14.00">x</text>
</g>
<!-- R1&#45;&gt;x -->
<g id="edge8" class="edge">
<title>R1&#45;&gt;x</title>
<path fill="none" stroke="#e7e7e7" stroke-dasharray="5,2" d="M144.4,-163.8C155,-157.29 167.23,-149.79 177.99,-143.19"/>
<polygon fill="#e7e7e7" stroke="#e7e7e7" points="179.92,-146.11 186.61,-137.9 176.26,-140.15 179.92,-146.11"/>
</g>
<!-- R2&#45;&gt;x -->
<g id="edge7" class="edge">
<title>R2&#45;&gt;x</title>
<path fill="none" stroke="#e7e7e7" stroke-dasharray="5,2" d="M144.4,-126C152.39,-126 161.31,-126 169.82,-126"/>
<polygon fill="#e7e7e7" stroke="#e7e7e7" points="169.92,-129.5 179.92,-126 169.92,-122.5 169.92,-129.5"/>
</g>
<!-- R3&#45;&gt;x -->
<g id="edge6" class="edge">
<title>R3&#45;&gt;x</title>
<path fill="none" stroke="#ff6262" d="M144.4,-88.2C155,-94.71 167.23,-102.21 177.99,-108.81"/>
<polygon fill="#ff6262" stroke="#ff6262" points="176.26,-111.85 186.61,-114.1 179.92,-105.89 176.26,-111.85"/>
</g>
</g>
</svg>
