<?xml version="1.0" encoding="UTF-8" standalone="no"?>
<!DOCTYPE svg PUBLIC "-//W3C//DTD SVG 1.1//EN"
 "http://www.w3.org/Graphics/SVG/1.1/DTD/svg11.dtd">
<!-- Generated by graphviz version 3.0.0 (0)
 -->
<!-- Pages: 1 -->
<svg width="332pt" height="98pt"
 viewBox="0.00 0.00 332.00 98.00" xmlns="http://www.w3.org/2000/svg" xmlns:xlink="http://www.w3.org/1999/xlink">
<g id="graph0" class="graph" transform="scale(1 1) rotate(0) translate(4 94)">
<polygon fill="white" stroke="transparent" points="-4,4 -4,-94 328,-94 328,4 -4,4"/>
<!-- a -->
<g id="node1" class="node">
<title>a</title>
<ellipse fill="none" stroke="black" cx="27" cy="-72" rx="27" ry="18"/>
<text text-anchor="middle" x="27" y="-68.3" font-family="Times New Roman,serif" font-size="14.00">a</text>
</g>
<!-- R1 -->
<g id="node5" class="node">
<title>R1</title>
<path fill="none" stroke="black" d="M132,-90C132,-90 102,-90 102,-90 96,-90 90,-84 90,-78 90,-78 90,-66 90,-66 90,-60 96,-54 102,-54 102,-54 132,-54 132,-54 138,-54 144,-60 144,-66 144,-66 144,-78 144,-78 144,-84 138,-90 132,-90"/>
<text text-anchor="middle" x="117" y="-68.3" font-family="Times New Roman,serif" font-size="14.00">R1</text>
</g>
<!-- a&#45;&gt;R1 -->
<g id="edge1" class="edge">
<title>a&#45;&gt;R1</title>
<path fill="none" stroke="#a2e665" d="M54.4,-72C62.39,-72 71.31,-72 79.82,-72"/>
<polygon fill="#a2e665" stroke="#a2e665" points="79.92,-75.5 89.92,-72 79.92,-68.5 79.92,-75.5"/>
</g>
<!-- R2 -->
<g id="node6" class="node">
<title>R2</title>
<path fill="none" stroke="#e7e7e7" d="M132,-36C132,-36 102,-36 102,-36 96,-36 90,-30 90,-24 90,-24 90,-12 90,-12 90,-6 96,0 102,0 102,0 132,0 132,0 138,0 144,-6 144,-12 144,-12 144,-24 144,-24 144,-30 138,-36 132,-36"/>
<text text-anchor="middle" x="117" y="-14.3" font-family="Times New Roman,serif" font-size="14.00">R2</text>
</g>
<!-- a&#45;&gt;R2 -->
<g id="edge2" class="edge">
<title>a&#45;&gt;R2</title>
<path fill="none" stroke="#e7e7e7" stroke-dasharray="5,2" d="M47.53,-60.02C57.46,-53.92 69.82,-46.34 81.3,-39.3"/>
<polygon fill="#e7e7e7" stroke="#e7e7e7" points="83.15,-42.26 89.85,-34.05 79.49,-36.3 83.15,-42.26"/>
</g>
<!-- b -->
<g id="node2" class="node">
<title>b</title>
<ellipse fill="none" stroke="black" cx="27" cy="-18" rx="27" ry="18"/>
<text text-anchor="middle" x="27" y="-14.3" font-family="Times New Roman,serif" font-size="14.00">b</text>
</g>
<!-- b&#45;&gt;R2 -->
<g id="edge3" class="edge">
<title>b&#45;&gt;R2</title>
<path fill="none" stroke="#e7e7e7" stroke-dasharray="5,2" d="M54.4,-18C62.39,-18 71.31,-18 79.82,-18"/>
<polygon fill="#e7e7e7" stroke="#e7e7e7" points="79.92,-21.5 89.92,-18 79.92,-14.5 79.92,-21.5"/>
</g>
<!-- x -->
<g id="node3" class="node">
<title>x</title>
<ellipse fill="none" stroke="black" cx="207" cy="-72" rx="27" ry="18"/>
<text text-anchor="middle" x="207" y="-68.3" font-family="Times New Roman,serif" font-size="14.00">x</text>
</g>
<!-- R3 -->
<g id="node7" class="node">
<title>R3</title>
<path fill="none" stroke="black" d="M312,-63C312,-63 282,-63 282,-63 276,-63 270,-57 270,-51 270,-51 270,-39 270,-39 270,-33 276,-27 282,-27 282,-27 312,-27 312,-27 318,-27 324,-33 324,-39 324,-39 324,-51 324,-51 324,-57 318,-63 312,-63"/>
<text text-anchor="middle" x="297" y="-41.3" font-family="Times New Roman,serif" font-size="14.00">R3</text>
</g>
<!-- x&#45;&gt;R3 -->
<g id="edge5" class="edge">
<title>x&#45;&gt;R3</title>
<path fill="none" stroke="#a2e665" d="M232.05,-64.62C240.73,-61.96 250.74,-58.89 260.21,-55.98"/>
<polygon fill="#a2e665" stroke="#a2e665" points="261.29,-59.31 269.82,-53.03 259.23,-52.62 261.29,-59.31"/>
</g>
<!-- y -->
<g id="node4" class="node">
<title>y</title>
<ellipse fill="none" stroke="black" cx="207" cy="-18" rx="27" ry="18"/>
<text text-anchor="middle" x="207" y="-14.3" font-family="Times New Roman,serif" font-size="14.00">y</text>
</g>
<!-- R1&#45;&gt;x -->
<g id="edge4" class="edge">
<title>R1&#45;&gt;x</title>
<path fill="none" stroke="#a2e665" d="M144.4,-72C152.39,-72 161.31,-72 169.82,-72"/>
<polygon fill="#a2e665" stroke="#a2e665" points="169.92,-75.5 179.92,-72 169.92,-68.5 169.92,-75.5"/>
</g>
<!-- R2&#45;&gt;y -->
<g id="edge6" class="edge">
<title>R2&#45;&gt;y</title>
<path fill="none" stroke="#e7e7e7" stroke-dasharray="5,2" d="M144.4,-18C152.39,-18 161.31,-18 169.82,-18"/>
<polygon fill="#e7e7e7" stroke="#e7e7e7" points="169.92,-21.5 179.92,-18 169.92,-14.5 169.92,-21.5"/>
</g>
<!-- R3&#45;&gt;y -->
<g id="edge7" class="edge">
<title>R3&#45;&gt;y</title>
<path fill="none" stroke="#ff6262" d="M269.82,-36.97C261.03,-34.27 251.09,-31.22 241.79,-28.37"/>
<polygon fill="#ff6262" stroke="#ff6262" points="242.63,-24.97 232.05,-25.38 240.58,-31.66 242.63,-24.97"/>
</g>
</g>
</svg>
