<?xml version="1.0" encoding="UTF-8" standalone="no"?>
<!DOCTYPE svg PUBLIC "-//W3C//DTD SVG 1.1//EN"
 "http://www.w3.org/Graphics/SVG/1.1/DTD/svg11.dtd">
<!-- Generated by graphviz version 3.0.0 (0)
 -->
<!-- Pages: 1 -->
<svg width="422pt" height="152pt"
 viewBox="0.00 0.00 422.00 152.00" xmlns="http://www.w3.org/2000/svg" xmlns:xlink="http://www.w3.org/1999/xlink">
<g id="graph0" class="graph" transform="scale(1 1) rotate(0) translate(4 148)">
<polygon fill="white" stroke="transparent" points="-4,4 -4,-148 418,-148 418,4 -4,4"/>
<!-- a -->
<g id="node1" class="node">
<title>a</title>
<ellipse fill="none" stroke="black" cx="27" cy="-72" rx="27" ry="18"/>
<text text-anchor="middle" x="27" y="-68.3" font-family="Times New Roman,serif" font-size="14.00">a</text>
</g>
<!-- R2 -->
<g id="node4" class="node">
<title>R2</title>
<path fill="none" stroke="black" d="M132,-90C132,-90 102,-90 102,-90 96,-90 90,-84 90,-78 90,-78 90,-66 90,-66 90,-60 96,-54 102,-54 102,-54 132,-54 132,-54 138,-54 144,-60 144,-66 144,-66 144,-78 144,-78 144,-84 138,-90 132,-90"/>
<text text-anchor="middle" x="117" y="-68.3" font-family="Times New Roman,serif" font-size="14.00">R2</text>
</g>
<!-- a&#45;&gt;R2 -->
<g id="edge1" class="edge">
<title>a&#45;&gt;R2</title>
<path fill="none" stroke="#a2e665" d="M54.4,-72C62.39,-72 71.31,-72 79.82,-72"/>
<polygon fill="#a2e665" stroke="#a2e665" points="79.92,-75.5 89.92,-72 79.92,-68.5 79.92,-75.5"/>
</g>
<!-- b -->
<g id="node2" class="node">
<title>b</title>
<ellipse fill="none" stroke="black" cx="27" cy="-18" rx="27" ry="18"/>
<text text-anchor="middle" x="27" y="-14.3" font-family="Times New Roman,serif" font-size="14.00">b</text>
</g>
<!-- b&#45;&gt;R2 -->
<g id="edge2" class="edge">
<title>b&#45;&gt;R2</title>
<path fill="none" stroke="#a2e665" d="M47.53,-29.98C57.46,-36.08 69.82,-43.66 81.3,-50.7"/>
<polygon fill="#a2e665" stroke="#a2e665" points="79.49,-53.7 89.85,-55.95 83.15,-47.74 79.49,-53.7"/>
</g>
<!-- R4 -->
<g id="node5" class="node">
<title>R4</title>
<path fill="none" stroke="black" d="M132,-36C132,-36 102,-36 102,-36 96,-36 90,-30 90,-24 90,-24 90,-12 90,-12 90,-6 96,0 102,0 102,0 132,0 132,0 138,0 144,-6 144,-12 144,-12 144,-24 144,-24 144,-30 138,-36 132,-36"/>
<text text-anchor="middle" x="117" y="-14.3" font-family="Times New Roman,serif" font-size="14.00">R4</text>
</g>
<!-- b&#45;&gt;R4 -->
<g id="edge3" class="edge">
<title>b&#45;&gt;R4</title>
<path fill="none" stroke="#a2e665" d="M54.4,-18C62.39,-18 71.31,-18 79.82,-18"/>
<polygon fill="#a2e665" stroke="#a2e665" points="79.92,-21.5 89.92,-18 79.92,-14.5 79.92,-21.5"/>
</g>
<!-- c -->
<g id="node3" class="node">
<title>c</title>
<ellipse fill="none" stroke="black" cx="27" cy="-126" rx="27" ry="18"/>
<text text-anchor="middle" x="27" y="-122.3" font-family="Times New Roman,serif" font-size="14.00">c</text>
</g>
<!-- R3 -->
<g id="node6" class="node">
<title>R3</title>
<path fill="none" stroke="black" d="M312,-90C312,-90 282,-90 282,-90 276,-90 270,-84 270,-78 270,-78 270,-66 270,-66 270,-60 276,-54 282,-54 282,-54 312,-54 312,-54 318,-54 324,-60 324,-66 324,-66 324,-78 324,-78 324,-84 318,-90 312,-90"/>
<text text-anchor="middle" x="297" y="-68.3" font-family="Times New Roman,serif" font-size="14.00">R3</text>
</g>
<!-- c&#45;&gt;R3 -->
<g id="edge4" class="edge">
<title>c&#45;&gt;R3</title>
<path fill="none" stroke="#a2e665" d="M54.16,-124.92C93.73,-122.75 170.91,-116.49 234,-99 242.8,-96.56 251.97,-93.11 260.47,-89.49"/>
<polygon fill="#a2e665" stroke="#a2e665" points="262.02,-92.64 269.74,-85.38 259.18,-86.24 262.02,-92.64"/>
</g>
<!-- z -->
<g id="node8" class="node">
<title>z</title>
<ellipse fill="none" stroke="black" cx="207" cy="-72" rx="27" ry="18"/>
<text text-anchor="middle" x="207" y="-68.3" font-family="Times New Roman,serif" font-size="14.00">z</text>
</g>
<!-- R2&#45;&gt;z -->
<g id="edge5" class="edge">
<title>R2&#45;&gt;z</title>
<path fill="none" stroke="#ff6262" d="M144.4,-72C152.39,-72 161.31,-72 169.82,-72"/>
<polygon fill="#ff6262" stroke="#ff6262" points="169.92,-75.5 179.92,-72 169.92,-68.5 169.92,-75.5"/>
</g>
<!-- x -->
<g id="node7" class="node">
<title>x</title>
<ellipse fill="none" stroke="black" cx="387" cy="-45" rx="27" ry="18"/>
<text text-anchor="middle" x="387" y="-41.3" font-family="Times New Roman,serif" font-size="14.00">x</text>
</g>
<!-- R4&#45;&gt;x -->
<g id="edge7" class="edge">
<title>R4&#45;&gt;x</title>
<path fill="none" stroke="#a2e665" d="M144.18,-20.64C192.34,-25.49 295.03,-35.84 349.82,-41.35"/>
<polygon fill="#a2e665" stroke="#a2e665" points="349.8,-44.87 360.1,-42.39 350.5,-37.91 349.8,-44.87"/>
</g>
<!-- R3&#45;&gt;x -->
<g id="edge8" class="edge">
<title>R3&#45;&gt;x</title>
<path fill="none" stroke="#a2e665" d="M324.4,-63.9C333.18,-61.21 343.07,-58.17 352.32,-55.33"/>
<polygon fill="#a2e665" stroke="#a2e665" points="353.48,-58.64 362.02,-52.36 351.43,-51.95 353.48,-58.64"/>
</g>
<!-- z&#45;&gt;R3 -->
<g id="edge6" class="edge">
<title>z&#45;&gt;R3</title>
<path fill="none" stroke="#ff6262" d="M234.4,-72C242.39,-72 251.31,-72 259.82,-72"/>
<polygon fill="#ff6262" stroke="#ff6262" points="259.92,-75.5 269.92,-72 259.92,-68.5 259.92,-75.5"/>
</g>
</g>
</svg>
